<svg version="1.1" id="Layer_1" xmlns="http://www.w3.org/2000/svg" xmlns:xlink="http://www.w3.org/1999/xlink" x="0px" y="0px"
	 width="100%" viewBox="0 0 600 480" enable-background="new 0 0 600 480" xml:space="preserve">
<path fill="#000000" opacity="1.000000" stroke="none" 
	d="
M307.000000,481.000000 
	C204.690231,481.000000 102.880470,481.000000 1.035353,481.000000 
	C1.035353,321.060608 1.035353,161.121201 1.035353,1.090900 
	C200.893066,1.090900 400.786194,1.090900 600.839661,1.090900 
	C600.839661,160.999878 600.839661,320.999908 600.839661,481.000000 
	C503.121246,481.000000 405.310638,481.000000 307.000000,481.000000 
M301.328613,327.680298 
	C301.328613,327.680298 301.539917,327.725220 301.536407,328.364166 
	C302.717499,329.157562 303.898621,329.950928 305.710846,331.071228 
	C308.161682,331.998108 310.612549,332.924988 313.125885,333.948700 
	C313.125885,333.948700 313.220642,333.883148 313.677429,334.150024 
	C314.368896,334.119965 315.060394,334.089874 316.611176,334.343323 
	C318.403046,334.484314 320.194946,334.625336 322.721466,334.988190 
	C323.480591,334.935699 324.239716,334.883240 325.853638,334.904297 
	C327.532776,334.676453 329.211914,334.448578 331.397675,334.409454 
	C331.890686,334.248169 332.383728,334.086884 333.413666,333.922363 
	C333.588226,333.882812 333.762787,333.843262 334.708313,333.936218 
	C345.839600,331.058105 349.972198,323.734100 347.784088,313.507141 
	C350.359741,311.887604 352.247711,310.700470 354.135681,309.513367 
	C353.933441,309.012177 353.731201,308.510986 353.528961,308.009796 
	C348.024963,308.009796 342.520966,308.009796 336.347290,307.948456 
	C335.899017,307.958649 335.450714,307.968842 334.439819,307.590973 
	C332.532074,308.047577 330.384644,308.108643 328.786804,309.076721 
	C327.313293,309.969513 326.429840,311.836151 325.286469,313.273804 
	C326.894592,313.366028 328.657104,313.930267 330.082611,313.464081 
	C334.799744,311.921326 339.631378,312.578033 340.915436,315.320892 
	C342.874298,319.505127 340.971802,325.047760 336.583130,327.684418 
	C334.892212,328.700287 333.084717,329.522125 331.079590,330.390747 
	C331.079590,330.390747 330.959839,330.614929 330.537140,330.398010 
	C330.537140,330.398010 330.080292,330.528564 329.310150,330.314331 
	C318.575134,330.701843 314.584015,328.279877 311.810181,319.866455 
	C311.366577,318.521088 310.459747,317.328430 309.866760,315.316193 
	C309.819580,314.564178 309.772400,313.812164 309.929474,312.168152 
	C309.882477,309.429016 309.835449,306.689880 309.920563,303.297607 
	C309.898865,302.855225 309.877167,302.412811 310.157104,301.334869 
	C312.447571,297.563293 314.738037,293.791718 317.493805,289.869171 
	C317.493805,289.869171 317.919708,289.628662 318.595123,289.648743 
	C320.060303,288.766235 321.525452,287.883728 323.732941,287.003876 
	C324.468414,286.910461 325.203888,286.817078 326.766083,286.897186 
	C330.723907,288.233856 334.940674,289.090698 338.564270,291.046570 
	C341.962250,292.880707 338.786896,296.080780 338.964325,298.654022 
	C339.042236,299.784149 339.845001,300.864288 340.318604,301.967133 
	C341.591064,301.292908 343.442169,300.940552 344.029205,299.885101 
	C345.911743,296.500366 347.605865,292.947449 348.813416,289.275482 
	C349.497925,287.193878 350.044647,283.524139 348.991821,282.704834 
	C345.897705,280.296997 345.230499,284.226624 343.698395,285.834503 
	C343.370361,286.178802 342.907867,286.395050 342.269012,286.834015 
	C336.026733,281.861084 328.577850,281.183044 321.035278,282.004272 
	C313.232788,282.853851 305.645355,284.679504 300.478058,292.054077 
	C300.478058,292.054077 300.133911,292.281311 299.535187,292.520691 
	C294.550507,297.887421 292.227905,303.931488 294.699799,312.008209 
	C294.740509,313.335144 294.781250,314.662079 294.485199,316.553101 
	C296.428436,319.836182 298.371674,323.119293 300.349243,326.644592 
	C300.349243,326.644592 300.483154,326.849274 300.399353,327.298889 
	C300.399353,327.298889 300.726257,327.618530 300.726257,327.618530 
	C300.726257,327.618530 301.174622,327.528778 301.328613,327.680298 
M387.484009,223.369370 
	C386.404236,224.272598 385.324463,225.175827 383.559052,226.229233 
	C383.054169,226.704758 382.549316,227.180267 381.399353,227.732834 
	C378.873047,230.366180 374.920380,232.641479 374.148804,235.715302 
	C372.937683,240.540100 373.872345,245.903503 373.665558,251.754745 
	C373.742310,252.494293 373.819092,253.233826 373.671570,254.463821 
	C374.397675,255.256714 375.123810,256.049622 375.849945,256.842499 
	C376.273651,256.248657 376.697327,255.654816 377.561005,255.052002 
	C377.561005,255.052002 378.000824,255.068115 378.706787,255.703583 
	C379.796661,255.225266 380.886536,254.746948 382.574310,254.136887 
	C384.036560,253.080368 385.498779,252.023834 387.620148,250.851593 
	C388.780457,249.914276 389.940796,248.976974 391.594086,247.942535 
	C391.722412,247.834946 391.850769,247.727341 392.475861,247.561920 
	C392.884979,247.035904 393.294098,246.509903 394.307190,245.679413 
	C394.863556,245.313293 395.419922,244.947174 396.490356,244.402893 
	C396.986847,243.932831 397.483337,243.462784 398.558319,242.888275 
	C399.033020,242.576248 399.507690,242.264221 400.616852,241.897049 
	C401.122345,241.283569 401.627808,240.670105 402.791656,239.818954 
	C403.505157,239.284866 404.218689,238.750778 405.287659,237.980179 
	C405.717712,237.639175 406.147766,237.298172 407.221802,236.702530 
	C408.970215,235.381760 410.718628,234.060989 413.271759,232.737839 
	C414.037140,231.903961 414.678101,230.889282 415.586945,230.263947 
	C425.504120,223.440582 435.498322,216.728806 445.392700,209.872833 
	C449.072998,207.322662 449.171021,204.859695 445.756805,202.248428 
	C425.113770,186.460098 404.426971,170.728989 383.519348,154.370712 
	C379.234314,151.244675 378.155579,151.352921 375.542236,156.051437 
	C375.513184,162.696075 375.484161,169.340698 375.294525,176.588837 
	C376.554871,177.597076 377.815247,178.605316 379.415680,179.869080 
	C379.415680,179.869080 379.826996,179.977631 380.116119,180.949524 
	C377.392578,182.398026 374.544312,183.654327 371.966309,185.327087 
	C358.052826,194.354980 343.539398,200.595459 326.362946,196.479721 
	C325.208313,196.203064 323.526581,198.126251 322.090027,199.026291 
	C322.851929,200.204605 323.431335,202.220474 324.403748,202.432343 
	C334.698578,204.675171 345.024445,206.063675 355.661774,200.890213 
	C356.127625,200.857056 356.593445,200.823898 357.249908,201.550995 
	C356.545532,203.187576 356.108551,205.017166 355.090515,206.427322 
	C350.661011,212.563049 346.062408,218.576675 341.980347,224.933746 
	C341.825409,224.839783 341.670441,224.745804 340.933990,224.829941 
	C340.249512,225.955658 339.565002,227.081375 338.327637,228.622482 
	C338.143066,229.279526 337.958466,229.936569 337.467407,230.373413 
	C336.691254,232.968216 335.069244,235.647293 335.317596,238.140030 
	C335.812469,243.107407 333.329224,243.681381 329.466370,243.735168 
	C318.336182,243.890091 307.208313,244.215118 295.320923,244.259384 
	C293.275452,245.304611 290.035736,245.894119 289.427582,247.487808 
	C288.067169,251.053024 289.021790,255.172989 292.792786,256.898010 
	C297.491821,259.047577 302.556366,261.250305 307.588715,261.594696 
	C313.370972,261.990356 319.454926,260.988861 325.105377,259.469452 
	C331.013214,257.880890 336.561584,254.955414 342.197144,252.711258 
	C342.197144,252.711258 342.179077,252.702194 343.011780,252.162247 
	C343.278229,251.966202 343.544708,251.770142 344.234070,251.868896 
	C349.984802,247.831787 356.501984,244.547562 361.344147,239.617981 
	C376.544891,224.142746 385.889465,206.363358 379.748474,183.657898 
	C379.556641,182.948578 380.492249,181.934341 381.281464,181.664719 
	C382.228088,182.235565 383.174744,182.806412 384.600098,183.870667 
	C385.730682,184.581482 386.861267,185.292297 388.201447,186.576538 
	C389.177429,187.241043 390.153381,187.905548 391.269318,188.856140 
	C391.269318,188.856140 391.586975,188.832901 391.824371,189.338333 
	C392.928650,190.063919 394.032959,190.789505 395.255707,191.825790 
	C395.255707,191.825790 395.587677,191.844376 395.891602,192.350677 
	C398.270111,194.105698 400.648651,195.860718 403.498657,197.997711 
	C403.979034,198.339722 404.459381,198.681747 405.283905,199.489838 
	C405.887390,199.909073 406.490906,200.328308 407.150970,200.937180 
	C407.150970,200.937180 407.339325,200.876389 407.627106,201.396988 
	C408.778595,202.176544 409.930084,202.956100 411.253296,204.695190 
	C411.216583,205.342331 411.179871,205.989456 410.529144,206.824036 
	C407.397522,209.237244 404.265900,211.650452 401.065613,214.041580 
	C401.065613,214.041580 401.051727,214.112381 400.409790,214.212112 
	C399.266846,215.138962 398.123871,216.065796 396.319305,217.117935 
	C394.889709,218.221481 393.460114,219.325043 391.450531,220.550919 
	C390.416107,221.409317 389.381683,222.267715 388.144806,223.078308 
	C388.144806,223.078308 388.101166,223.281693 387.484009,223.369370 
M249.967850,304.371552 
	C248.634003,304.135437 247.300156,303.899292 245.271759,303.303741 
	C244.496017,303.268066 243.720261,303.232361 242.335464,302.909698 
	C240.207413,302.234406 238.079376,301.559082 235.286087,300.323730 
	C235.004898,300.253326 234.723709,300.182892 234.125412,299.551788 
	C229.594330,294.395782 229.726685,291.076965 235.348465,288.910034 
	C239.011749,287.498016 243.345428,286.921051 247.250305,287.298645 
	C251.026413,287.663788 255.034988,289.162292 258.130493,291.324158 
	C259.406036,292.214966 258.354767,296.174957 258.785217,298.665802 
	C258.960724,299.681549 260.284149,301.262329 261.042206,301.238098 
	C262.229187,301.200104 264.018280,300.281921 264.435577,299.274139 
	C266.301422,294.768188 267.844452,290.121460 269.318237,285.466705 
	C269.586151,284.620667 269.214966,282.801514 268.741699,282.646881 
	C267.649231,282.289886 265.448853,282.290344 265.208374,282.825073 
	C262.607178,288.609222 258.807129,285.466431 255.316406,284.333527 
	C244.991470,280.982758 234.956284,280.820496 225.997742,287.835754 
	C218.506577,293.701935 218.609512,306.119843 226.455872,310.271301 
	C231.574127,312.979340 237.566040,314.036133 243.823059,316.092194 
	C247.774521,317.251038 251.942764,317.965179 255.591980,319.744080 
	C257.612854,320.729248 260.126129,323.645477 259.931122,325.417694 
	C259.731415,327.232208 256.607849,329.916687 254.566772,330.107269 
	C249.038773,330.623383 243.188217,330.928711 237.863739,329.654205 
	C228.868835,327.501160 226.436554,323.780029 225.842026,315.029266 
	C225.821854,314.732178 225.547043,314.452332 224.777298,313.032867 
	C223.236206,314.336578 220.951675,315.308533 220.729462,316.627838 
	C219.884171,321.646759 219.568741,326.775635 219.485870,331.870422 
	C219.477509,332.384399 222.405823,333.400085 223.919449,333.310181 
	C224.790558,333.258453 225.557495,331.452942 226.587143,330.167419 
	C234.770248,335.640656 243.846832,335.474030 253.882202,334.870117 
	C254.703842,334.593933 255.525482,334.317749 256.554901,334.205444 
	C256.759216,334.257446 256.908264,334.188995 257.680237,334.085541 
	C258.112549,333.947784 258.544891,333.810028 259.629913,333.673492 
	C260.960449,332.737579 262.290955,331.801697 263.816040,330.957611 
	C263.816040,330.957611 263.928131,330.773987 264.568481,330.719849 
	C265.359314,329.803528 266.150146,328.887207 267.002441,327.982208 
	C267.002441,327.982208 266.965271,327.931976 267.602203,327.701935 
	C268.572784,325.457581 269.543335,323.213257 270.716187,320.333710 
	C270.652008,319.899200 270.587830,319.464691 270.705048,318.296814 
	C269.187225,311.416412 264.529510,307.907837 257.245331,306.161621 
	C256.471680,306.108490 255.698044,306.055328 254.766281,305.754517 
	C254.565231,305.631348 254.387619,305.658936 253.557632,305.263153 
	C252.700867,305.103943 251.844086,304.944733 250.815079,304.590179 
	C250.815079,304.590179 250.574997,304.691376 249.967850,304.371552 
M387.004547,283.470917 
	C385.966614,283.473328 384.928680,283.475739 383.441193,283.024048 
	C380.022308,281.238312 377.138489,281.931702 375.636780,285.467377 
	C374.162415,288.938721 373.088470,292.620667 372.279755,296.306976 
	C372.066284,297.280151 373.225647,299.070404 374.230347,299.627380 
	C374.997284,300.052612 377.183746,299.472778 377.571533,298.730347 
	C378.666870,296.633270 379.161438,294.222382 379.970032,291.463898 
	C379.970032,291.463898 379.987549,290.986633 380.547302,290.435791 
	C384.018219,287.437164 387.858398,288.178314 391.631104,290.216583 
	C391.665192,295.118866 391.699249,300.021149 391.500092,305.707794 
	C391.480804,309.166382 391.461517,312.624939 390.932831,316.574097 
	C390.640961,317.333099 390.113770,318.086487 390.095367,318.852051 
	C389.974304,323.889343 390.633606,328.918274 383.585083,330.588501 
	C381.266998,331.137787 381.882141,333.820648 385.659576,334.181915 
	C394.101471,334.089355 402.543365,333.996765 411.780884,334.033569 
	C412.521729,333.437408 413.262604,332.841248 414.003479,332.245117 
	C413.167633,331.461395 412.381927,330.070343 411.487488,329.996490 
	C407.017273,329.627350 406.518280,327.122345 406.691376,323.247528 
	C407.037415,315.501678 406.816528,307.730438 406.961334,299.091827 
	C406.948822,296.721436 406.936340,294.351074 407.207977,291.164825 
	C407.647552,290.438965 408.069397,289.099213 408.529510,289.085938 
	C411.735260,288.993439 414.948944,289.175812 418.004333,289.208801 
	C418.004333,289.208801 418.174622,289.255371 418.253693,290.076233 
	C418.314026,290.344421 418.374329,290.612610 418.229431,291.653351 
	C418.825806,293.674316 419.105194,295.878082 420.128571,297.652802 
	C420.825317,298.861084 422.481049,299.927277 423.866058,300.175720 
	C424.715637,300.328094 426.707367,298.800629 426.693390,298.055511 
	C426.668152,296.710114 425.524048,295.385681 424.860382,293.187103 
	C424.480499,292.169586 424.100616,291.152039 424.241943,289.767059 
	C423.795471,288.899261 423.348969,288.031464 422.945557,286.607422 
	C422.915039,286.423950 422.884552,286.240479 422.941772,285.378265 
	C421.910583,284.776520 420.879364,284.174774 419.075836,283.399780 
	C417.762054,283.455780 416.448303,283.511749 414.219177,283.275665 
	C405.404510,283.378815 396.589844,283.481995 387.004547,283.470917 
M306.575745,183.095642 
	C306.579529,181.427368 306.583344,179.759094 306.848236,177.228043 
	C308.298981,176.802933 309.742340,176.040863 311.201721,176.008759 
	C319.183838,175.833206 327.176331,176.010712 335.152008,175.712173 
	C339.750946,175.540024 344.375488,174.958923 348.894836,174.080093 
	C352.936066,173.294235 354.516876,169.060394 352.174438,165.518280 
	C351.038208,163.800125 349.340942,162.258453 347.564331,161.192505 
	C340.362854,156.871719 332.395996,157.047653 324.495148,158.117401 
	C312.249023,159.775497 300.731293,163.527084 290.311432,171.415100 
	C289.347504,172.053207 288.340302,172.635010 287.426056,173.337738 
	C269.524353,187.097794 259.206116,204.621368 260.385254,227.854736 
	C260.509094,230.294724 260.491699,232.741898 259.838257,234.623444 
	C258.882416,233.924423 257.926575,233.225388 256.394165,232.091125 
	C250.181976,227.417618 243.969803,222.744110 237.547455,217.489105 
	C236.002380,216.438095 234.457321,215.387085 232.605911,213.874680 
	C231.981735,213.498505 231.357559,213.122345 230.503586,212.225693 
	C229.995300,211.976334 229.487000,211.726990 228.731628,210.809341 
	C229.479187,209.346924 230.226761,207.884506 231.465790,206.183807 
	C231.876846,205.873505 232.287918,205.563202 233.207230,205.059875 
	C233.782532,204.625015 234.357834,204.190140 235.510696,203.716782 
	C236.202759,203.136932 236.894821,202.557083 238.072083,201.450684 
	C241.690445,198.882904 245.308792,196.315140 249.519516,193.634415 
	C250.037735,193.098953 250.555954,192.563492 251.741547,191.895081 
	C253.130539,190.797852 254.519531,189.700623 256.463135,188.398361 
	C256.886261,188.036987 257.309387,187.675598 258.341339,187.188980 
	C259.547272,186.074921 260.753174,184.960846 262.655090,183.613113 
	C262.977478,178.089310 263.472504,172.566879 263.516541,167.040863 
	C263.529694,165.392609 262.368286,162.392090 261.590820,162.340652 
	C259.532990,162.204468 257.390808,163.342499 254.633331,164.288315 
	C235.564163,177.853928 216.498230,191.424118 197.423553,204.981964 
	C192.572189,208.430206 192.516647,209.377670 197.407227,213.164764 
	C205.602615,219.511002 213.867233,225.767715 222.078964,232.092957 
	C232.651901,240.236969 243.175156,248.445847 253.785736,256.540375 
	C255.650986,257.963318 257.834534,260.053833 260.569305,256.295807 
	C260.945740,251.193344 261.322144,246.090866 261.866241,240.201859 
	C261.804688,239.139145 261.743103,238.076447 261.468109,236.005936 
	C261.225342,235.763077 260.982605,235.520203 261.671631,235.624603 
	C263.825165,235.215714 266.263855,235.321274 268.084686,234.312088 
	C277.836731,228.907059 287.292908,222.687988 298.708313,221.554474 
	C303.759064,221.052963 308.942932,222.051544 314.060333,221.973709 
	C315.809937,221.947098 317.541168,220.713776 319.280792,220.031769 
	C317.910583,218.690750 316.683075,216.411316 315.144562,216.177383 
	C309.621216,215.337601 303.975250,214.720108 298.409546,214.927567 
	C293.928131,215.094635 289.495697,216.575119 285.041534,217.472870 
	C284.683289,217.049850 284.325043,216.626846 283.966797,216.203827 
	C290.824158,207.027054 297.681488,197.850281 304.989014,188.167648 
	C305.430695,186.742111 305.872406,185.316574 306.575745,183.095642 
z"/>
<path fill="#5DDBD3" opacity="1.000000" stroke="none" 
	d="
M343.811157,251.574066 
	C343.544708,251.770142 343.278229,251.966202 342.611725,252.475464 
	C342.211670,252.788666 342.153015,252.699600 342.070801,252.460632 
	C341.666168,252.134781 341.343750,252.047897 340.759338,251.817307 
	C338.954926,252.405716 337.412537,253.137817 335.510986,253.886078 
	C334.437317,253.980423 333.722809,254.058655 332.834381,253.958282 
	C332.099060,254.155487 331.537628,254.531311 330.511230,254.923553 
	C326.559875,255.008835 323.054901,255.338455 319.590973,255.091904 
	C312.547699,254.590591 305.614502,253.577423 301.613220,246.902069 
	C304.367798,246.437653 306.646271,245.905869 308.932861,245.868256 
	C316.235535,245.748169 323.562836,246.124405 330.833252,245.622757 
	C333.164734,245.461884 336.715454,243.603882 337.304779,241.755875 
	C338.396240,238.333298 337.716156,234.345825 337.773895,230.593597 
	C337.958466,229.936569 338.143066,229.279526 338.937561,228.414322 
	C340.203491,227.021378 340.859497,225.836609 341.515503,224.651825 
	C341.670441,224.745804 341.825409,224.839783 342.093506,224.725784 
	C347.765991,217.820496 353.415375,211.194412 358.812561,204.368896 
	C359.964539,202.912048 361.619293,200.018265 357.059296,200.790756 
	C356.593445,200.823898 356.127625,200.857056 355.008148,200.671112 
	C353.053253,200.476120 351.745270,200.424057 350.451843,200.537506 
	C344.695587,201.042313 338.951385,201.764160 333.185364,202.031433 
	C331.330688,202.117401 329.422546,201.050110 327.538849,200.510422 
	C327.656281,200.014847 327.773712,199.519272 327.891144,199.023697 
	C330.580688,199.310959 333.264587,199.766434 335.960754,199.856705 
	C348.452576,200.274933 359.195557,195.149490 369.622131,189.064270 
	C376.425873,185.093430 378.757599,186.443161 379.023041,194.493240 
	C379.061371,195.655457 379.073517,196.829819 378.956451,197.984222 
	C377.083374,216.457733 369.113007,231.531342 354.147339,242.793716 
	C350.541504,245.507294 347.248199,248.636169 343.811157,251.574066 
z"/>
<path fill="#B4B4B4" opacity="1.000000" stroke="none" 
	d="
M230.733383,212.746170 
	C231.357559,213.122345 231.981735,213.498505 232.877777,214.392365 
	C234.685638,215.963562 236.221634,217.017090 237.757629,218.070602 
	C243.969803,222.744110 250.181976,227.417618 256.681030,232.677200 
	C256.931702,234.245026 256.895569,235.226761 256.559326,236.154587 
	C255.180954,235.259293 254.102737,234.417923 252.892700,233.234390 
	C251.794479,232.279648 250.828079,231.667053 249.522125,230.994324 
	C243.483505,226.517273 237.784454,222.100327 231.981445,217.417999 
	C231.263519,216.764191 230.649536,216.375809 229.695694,215.901733 
	C222.602707,211.121964 222.489441,208.320984 229.016235,203.618073 
	C237.765564,197.313705 246.599045,191.125946 255.333115,184.800766 
	C256.620422,183.868515 258.415253,182.519119 258.509033,181.254044 
	C258.877625,176.281662 258.659943,171.265808 258.659943,165.867874 
	C238.232269,180.487381 218.532211,194.586151 198.132935,209.185333 
	C217.764236,224.205826 236.943787,238.880661 256.814392,254.084244 
	C256.814392,247.331711 256.814392,241.736450 257.172211,236.124619 
	C258.913849,236.409943 260.297699,236.711838 261.681519,237.013733 
	C261.743103,238.076447 261.804688,239.139145 261.450623,240.776337 
	C260.655518,246.434708 260.275970,251.518616 259.896454,256.602509 
	C257.834534,260.053833 255.650986,257.963318 253.785736,256.540375 
	C243.175156,248.445847 232.651901,240.236969 222.078964,232.092957 
	C213.867233,225.767715 205.602615,219.511002 197.407227,213.164764 
	C192.516647,209.377670 192.572189,208.430206 197.423553,204.981964 
	C216.498230,191.424118 235.564163,177.853928 255.257141,164.117538 
	C260.571564,162.326294 262.187286,163.476486 262.102142,168.262100 
	C262.009705,173.456192 262.003113,178.651825 261.959106,183.846786 
	C260.753174,184.960846 259.547272,186.074921 257.826477,187.206085 
	C256.843933,187.683258 256.376221,188.143311 255.908508,188.603378 
	C254.519531,189.700623 253.130539,190.797852 251.115555,192.012726 
	C249.968750,192.669373 249.447952,193.208374 248.927155,193.747375 
	C245.308792,196.315140 241.690445,198.882904 237.535461,201.729767 
	C236.310272,202.590988 235.621704,203.173126 234.933136,203.755264 
	C234.357834,204.190140 233.782532,204.625015 232.756683,205.119400 
	C231.862198,205.593323 231.418259,206.007706 230.974335,206.422089 
	C230.226761,207.884506 229.479187,209.346924 228.904510,211.347839 
	C229.629395,212.172958 230.181381,212.459564 230.733383,212.746170 
z"/>
<path fill="#58AFAA" opacity="1.000000" stroke="none" 
	d="
M260.539856,235.185730 
	C260.491699,232.741898 260.509094,230.294724 260.385254,227.854736 
	C259.206116,204.621368 269.524353,187.097794 287.426056,173.337738 
	C288.340302,172.635010 289.347504,172.053207 290.581909,171.527771 
	C290.922333,171.838257 290.986053,172.038040 290.913513,172.530518 
	C282.801910,180.054977 274.401031,186.868362 269.523102,196.900940 
	C264.557251,207.114426 261.623108,217.613052 263.659088,229.062332 
	C264.344055,232.914185 265.726776,233.351822 269.454834,231.463837 
	C277.819092,227.227951 286.585907,223.787842 295.179779,220.003326 
	C296.317474,219.502335 297.402618,218.882050 298.512085,218.317017 
	C298.327393,217.821823 298.142700,217.326630 297.957977,216.831421 
	C294.483948,217.558334 291.035675,218.512848 287.524323,218.910645 
	C285.907349,219.093826 283.381042,218.687698 282.707672,217.630875 
	C282.059052,216.612900 282.806976,214.079269 283.739471,212.787872 
	C287.820221,207.136688 292.051941,201.579865 296.495453,196.209396 
	C300.954620,190.819992 304.438446,185.133118 304.661804,177.875092 
	C305.488220,177.956787 306.037689,178.023804 306.587128,178.090820 
	C306.583344,179.759094 306.579529,181.427368 306.163605,183.668472 
	C305.347260,185.718704 304.943054,187.196121 304.538849,188.673523 
	C297.681488,197.850281 290.824158,207.027054 283.966797,216.203827 
	C284.325043,216.626846 284.683289,217.049850 285.041534,217.472870 
	C289.495697,216.575119 293.928131,215.094635 298.409546,214.927567 
	C303.975250,214.720108 309.621216,215.337601 315.144562,216.177383 
	C316.683075,216.411316 317.910583,218.690750 319.280792,220.031769 
	C317.541168,220.713776 315.809937,221.947098 314.060333,221.973709 
	C308.942932,222.051544 303.759064,221.052963 298.708313,221.554474 
	C287.292908,222.687988 277.836731,228.907059 268.084686,234.312088 
	C266.263855,235.321274 263.825165,235.215714 261.239563,235.478790 
	C260.573395,235.287766 260.484161,235.238678 260.539856,235.185730 
M310.155670,219.612701 
	C311.528900,219.612701 312.902130,219.612701 314.275360,219.612701 
	C314.282928,219.083389 314.290497,218.554092 314.298035,218.024780 
	C312.177429,217.680481 310.056793,217.336197 307.936157,216.991898 
	C307.825043,217.412933 307.713928,217.833954 307.602814,218.254990 
	C308.225555,218.636780 308.848328,219.018570 310.155670,219.612701 
z"/>
<path fill="#5BA6A2" opacity="1.000000" stroke="none" 
	d="
M243.166595,315.832611 
	C237.566040,314.036133 231.574127,312.979340 226.455872,310.271301 
	C218.609512,306.119843 218.506577,293.701935 225.997742,287.835754 
	C234.956284,280.820496 244.991470,280.982758 255.316406,284.333527 
	C258.807129,285.466431 262.607178,288.609222 265.208374,282.825073 
	C265.448853,282.290344 267.649231,282.289886 268.741699,282.646881 
	C269.214966,282.801514 269.586151,284.620667 269.318237,285.466705 
	C267.844452,290.121460 266.301422,294.768188 264.435577,299.274139 
	C264.018280,300.281921 262.229187,301.200104 261.042206,301.238098 
	C260.284149,301.262329 258.960724,299.681549 258.785217,298.665802 
	C258.354767,296.174957 259.406036,292.214966 258.130493,291.324158 
	C255.034988,289.162292 251.026413,287.663788 247.250305,287.298645 
	C243.345428,286.921051 239.011749,287.498016 235.348465,288.910034 
	C229.726685,291.076965 229.594330,294.395782 233.981171,299.833374 
	C232.698029,299.735413 231.559097,299.355896 230.290390,298.600830 
	C227.930145,293.548218 230.276962,290.015900 233.620987,286.532257 
	C226.482742,287.344269 223.413071,290.965179 225.021149,296.488586 
	C225.768326,297.144531 226.397964,297.539032 227.032959,298.220886 
	C227.000839,298.696259 226.963364,298.884186 226.723328,299.354523 
	C225.258774,303.189301 227.223541,305.439484 230.001648,306.755188 
	C234.214554,308.750397 238.659409,310.255829 243.006683,312.331268 
	C243.229599,313.601410 243.451569,314.509644 243.550400,315.525940 
	C243.427277,315.634064 243.166595,315.832611 243.166595,315.832611 
z"/>
<path fill="#42918B" opacity="1.000000" stroke="none" 
	d="
M291.043579,172.239807 
	C290.986053,172.038040 290.922333,171.838257 290.851746,171.483322 
	C300.731293,163.527084 312.249023,159.775497 324.495148,158.117401 
	C332.395996,157.047653 340.362854,156.871719 347.564331,161.192505 
	C349.340942,162.258453 351.038208,163.800125 352.174438,165.518280 
	C354.516876,169.060394 352.936066,173.294235 348.894836,174.080093 
	C344.375488,174.958923 339.750946,175.540024 335.152008,175.712173 
	C327.176331,176.010712 319.183838,175.833206 311.201721,176.008759 
	C309.742340,176.040863 308.298981,176.802933 306.717682,177.659424 
	C306.037689,178.023804 305.488220,177.956787 304.628143,177.513718 
	C306.135406,176.142563 307.905609,174.412933 309.780243,174.291138 
	C315.240540,173.936371 320.751709,174.434860 326.225586,174.197998 
	C331.069641,173.988388 335.890411,173.240997 341.333527,172.666412 
	C337.860168,166.356415 332.635620,165.151215 327.110077,164.674454 
	C314.341949,163.572754 302.393127,166.510361 291.043579,172.239807 
z"/>
<path fill="#BCBCBC" opacity="1.000000" stroke="none" 
	d="
M383.754791,154.978745 
	C404.426971,170.728989 425.113770,186.460098 445.756805,202.248428 
	C449.171021,204.859695 449.072998,207.322662 445.392700,209.872833 
	C435.498322,216.728806 425.504120,223.440582 415.586945,230.263947 
	C414.678101,230.889282 414.037140,231.903961 412.699768,232.230057 
	C411.998169,231.388916 411.868561,231.055542 411.816681,230.471985 
	C411.935730,229.872284 411.977081,229.522812 412.264526,228.927795 
	C422.946655,221.100983 433.382751,213.519699 444.092285,205.739761 
	C432.583527,196.909546 421.808960,188.687103 411.083801,180.400635 
	C401.172119,172.742645 391.313385,165.016083 381.701263,157.123795 
	C382.310425,156.367264 382.649658,155.806641 383.192322,155.213501 
	C383.395752,155.180969 383.754791,154.978745 383.754791,154.978745 
z"/>
<path fill="#57ABA6" opacity="1.000000" stroke="none" 
	d="
M344.022614,251.721481 
	C347.248199,248.636169 350.541504,245.507294 354.147339,242.793716 
	C369.113007,231.531342 377.083374,216.457733 378.956451,197.984222 
	C379.073517,196.829819 379.061371,195.655457 379.023041,194.493240 
	C378.757599,186.443161 376.425873,185.093430 369.622131,189.064270 
	C359.195557,195.149490 348.452576,200.274933 335.960754,199.856705 
	C333.264587,199.766434 330.580688,199.310959 327.891144,199.023697 
	C327.773712,199.519272 327.656281,200.014847 327.538849,200.510422 
	C329.422546,201.050110 331.330688,202.117401 333.185364,202.031433 
	C338.951385,201.764160 344.695587,201.042313 350.451843,200.537506 
	C351.745270,200.424057 353.053253,200.476120 354.658203,200.655869 
	C345.024445,206.063675 334.698578,204.675171 324.403748,202.432343 
	C323.431335,202.220474 322.851929,200.204605 322.090027,199.026291 
	C323.526581,198.126251 325.208313,196.203064 326.362946,196.479721 
	C343.539398,200.595459 358.052826,194.354980 371.966309,185.327087 
	C374.544312,183.654327 377.392578,182.398026 380.138611,180.422729 
	C380.434265,180.110489 380.707428,180.325043 380.927002,180.665161 
	C380.873352,180.790726 380.902252,181.062271 380.902252,181.062271 
	C380.492249,181.934341 379.556641,182.948578 379.748474,183.657898 
	C385.889465,206.363358 376.544891,224.142746 361.344147,239.617981 
	C356.501984,244.547562 349.984802,247.831787 344.022614,251.721481 
z"/>
<path fill="#68C6C1" opacity="1.000000" stroke="none" 
	d="
M325.939362,286.723663 
	C325.203888,286.817078 324.468414,286.910461 323.012909,286.946259 
	C320.835144,287.801971 319.377441,288.715332 317.919708,289.628662 
	C317.919708,289.628662 317.493805,289.869171 316.915039,289.979431 
	C312.433594,293.099457 309.061890,296.398895 309.855499,301.970428 
	C309.877167,302.412811 309.898865,302.855225 309.518768,303.782288 
	C307.484100,307.325012 306.845215,310.314270 309.725220,313.060150 
	C309.772400,313.812164 309.819580,314.564178 309.626587,315.958557 
	C311.031708,320.289459 312.052856,324.465668 314.466156,327.554077 
	C318.235443,332.377838 325.184479,333.255127 330.080292,330.528564 
	C330.080292,330.528564 330.537140,330.398010 330.766357,330.869598 
	C331.003113,332.067413 331.010681,332.793640 330.959473,333.690186 
	C330.900665,333.860504 330.891052,334.220734 330.891052,334.220734 
	C329.211914,334.448578 327.532776,334.676453 325.200256,334.711060 
	C323.693512,334.600647 322.840149,334.683472 321.986816,334.766327 
	C320.194946,334.625336 318.403046,334.484314 315.947815,334.086060 
	C314.596527,333.846924 313.908569,333.865051 313.220642,333.883148 
	C313.220642,333.883148 313.125885,333.948700 312.961761,333.589844 
	C310.312927,332.093872 307.828186,330.956757 305.107391,329.604614 
	C303.760834,328.834778 302.650360,328.279999 301.539917,327.725220 
	C301.539917,327.725220 301.328613,327.680298 301.255127,327.400787 
	C301.026703,326.830383 300.793854,326.739716 300.483154,326.849274 
	C300.483154,326.849274 300.349243,326.644592 300.329163,326.177368 
	C298.480072,322.469757 296.651031,319.229370 294.821960,315.989014 
	C294.781250,314.662079 294.740509,313.335144 294.892731,311.189423 
	C296.768433,304.340851 298.451172,298.311096 300.133911,292.281311 
	C300.133911,292.281311 300.478058,292.054077 301.007019,291.909180 
	C310.316986,283.022766 329.004547,280.651855 334.853851,285.604401 
	C332.164368,285.942078 329.051849,286.332886 325.939362,286.723663 
M306.401825,291.817902 
	C305.347443,292.898895 304.293060,293.979889 302.952484,295.572845 
	C302.656250,296.050659 302.359985,296.528442 301.439850,297.320984 
	C301.354706,298.221893 301.269531,299.122833 300.796082,300.700378 
	C300.123596,304.022675 298.628784,307.441528 299.004333,310.640808 
	C299.398987,314.002777 301.584412,317.154572 302.822021,321.073486 
	C303.886749,322.705505 304.951447,324.337555 306.098785,326.140076 
	C306.098785,326.140076 306.305817,326.128937 306.305817,326.128937 
	C306.305817,326.128937 305.961517,326.027924 306.096588,325.244934 
	C305.771210,317.103333 305.445862,308.961700 305.136993,300.288635 
	C305.247498,299.588165 305.358002,298.887665 306.076050,297.942566 
	C307.643738,295.298370 309.211456,292.654205 310.779175,290.010010 
	C310.413300,289.728668 310.047455,289.447296 309.681610,289.165955 
	C308.786285,289.934784 307.890930,290.703644 306.401825,291.817902 
z"/>
<path fill="#BFC0BF" opacity="1.000000" stroke="none" 
	d="
M380.980621,180.539597 
	C380.707428,180.325043 380.434265,180.110489 379.994019,179.936783 
	C379.826996,179.977631 379.415680,179.869080 379.222351,179.446060 
	C377.837708,178.010468 376.646423,176.997894 375.455109,175.985336 
	C375.484161,169.340698 375.513184,162.696075 375.950989,155.480057 
	C378.569427,155.021118 380.779175,155.133560 382.988892,155.246002 
	C382.649658,155.806641 382.310425,156.367264 381.349182,157.083923 
	C380.259552,157.330307 379.389374,157.398499 379.383026,157.514236 
	C379.208862,160.678940 378.797058,163.880936 379.108398,167.008667 
	C379.460754,170.548309 377.519470,174.269043 382.064484,177.391495 
	C392.682220,184.685928 402.732025,192.815292 412.912323,200.734482 
	C417.347504,204.184586 417.262299,206.492538 412.656586,209.843033 
	C401.902313,217.666382 391.036163,225.336014 380.289093,233.169083 
	C379.280151,233.904434 378.213104,235.333176 378.164734,236.481720 
	C377.934937,241.941208 378.048706,247.415161 378.029419,253.247894 
	C378.012695,254.097260 378.006775,254.582687 378.000824,255.068115 
	C378.000824,255.068115 377.561005,255.052002 377.028564,254.915802 
	C375.629333,254.510880 374.762604,254.242126 373.895844,253.973373 
	C373.819092,253.233826 373.742310,252.494293 374.033936,251.064728 
	C376.217529,242.555466 372.212189,232.778290 382.044434,227.655792 
	C382.549316,227.180267 383.054169,226.704758 384.211853,226.090851 
	C385.943512,225.062210 387.022339,224.171951 388.101166,223.281693 
	C388.101166,223.281693 388.144806,223.078308 388.543762,223.040771 
	C389.972015,222.145020 391.001282,221.286819 392.030518,220.428619 
	C393.460114,219.325043 394.889709,218.221481 396.985352,217.014160 
	C398.784821,215.977722 399.918274,215.045044 401.051727,214.112366 
	C401.051727,214.112381 401.065613,214.041580 401.441040,213.993744 
	C404.925385,211.509460 408.034271,209.073013 411.143188,206.636597 
	C411.179871,205.989456 411.216583,205.342331 411.072235,203.924103 
	C409.707214,202.394150 408.523285,201.635269 407.339325,200.876389 
	C407.339325,200.876389 407.150970,200.937180 407.020599,200.560638 
	C406.240082,199.797333 405.589905,199.410538 404.939758,199.023758 
	C404.459381,198.681747 403.979034,198.339722 403.155640,197.511917 
	C400.404297,195.298874 397.996002,193.571625 395.587677,191.844376 
	C395.587677,191.844376 395.255707,191.825790 395.108154,191.385620 
	C393.836029,190.241257 392.711517,189.537079 391.586975,188.832901 
	C391.586975,188.832901 391.269318,188.856140 391.104523,188.417236 
	C389.957092,187.319916 388.974457,186.661514 387.991852,186.003113 
	C386.861267,185.292297 385.730682,184.581482 384.257324,183.348419 
	C382.936554,182.063995 381.958588,181.301804 380.980621,180.539597 
z"/>
<path fill="#42918B" opacity="1.000000" stroke="none" 
	d="
M301.140778,247.060883 
	C305.614502,253.577423 312.547699,254.590591 319.590973,255.091904 
	C323.054901,255.338455 326.559875,255.008835 330.691162,255.101379 
	C331.893494,254.887497 332.450867,254.512192 333.008270,254.136871 
	C333.722809,254.058655 334.437317,253.980423 335.874725,253.918579 
	C338.072174,253.276962 339.546722,252.618988 341.021301,251.961029 
	C341.343750,252.047897 341.666168,252.134781 342.100067,252.439636 
	C342.211517,252.657608 342.267059,252.614319 342.267059,252.614319 
	C336.561584,254.955414 331.013214,257.880890 325.105377,259.469452 
	C319.454926,260.988861 313.370972,261.990356 307.588715,261.594696 
	C302.556366,261.250305 297.491821,259.047577 292.792786,256.898010 
	C289.021790,255.172989 288.067169,251.053024 289.427582,247.487808 
	C290.035736,245.894119 293.275452,245.304611 295.859650,244.620972 
	C297.979187,245.675323 299.559967,246.368103 301.140778,247.060883 
z"/>
<path fill="#58AFAA" opacity="1.000000" stroke="none" 
	d="
M253.001129,334.823853 
	C243.846832,335.474030 234.770248,335.640656 226.587143,330.167419 
	C225.557495,331.452942 224.790558,333.258453 223.919449,333.310181 
	C222.405823,333.400085 219.477509,332.384399 219.485870,331.870422 
	C219.568741,326.775635 219.884171,321.646759 220.729462,316.627838 
	C220.951675,315.308533 223.236206,314.336578 224.777298,313.032867 
	C225.547043,314.452332 225.821854,314.732178 225.842026,315.029266 
	C226.436554,323.780029 228.868835,327.501160 237.863739,329.654205 
	C243.188217,330.928711 249.038773,330.623383 254.566772,330.107269 
	C256.607849,329.916687 259.731415,327.232208 259.931122,325.417694 
	C260.126129,323.645477 257.612854,320.729248 255.591980,319.744080 
	C251.942764,317.965179 247.774521,317.251038 243.494827,315.962402 
	C243.166595,315.832611 243.427277,315.634064 243.932480,315.585693 
	C248.626068,316.078461 252.814453,316.619629 257.179688,317.441162 
	C263.525208,326.223999 263.497650,326.181274 254.910187,331.722748 
	C253.989960,332.316528 253.624130,333.769470 253.001129,334.823853 
z"/>
<path fill="#54A19C" opacity="1.000000" stroke="none" 
	d="
M337.016968,308.009796 
	C342.520966,308.009796 348.024963,308.009796 353.528961,308.009796 
	C353.731201,308.510986 353.933441,309.012177 354.135681,309.513367 
	C352.247711,310.700470 350.359741,311.887604 347.784088,313.507141 
	C349.972198,323.734100 345.839600,331.058105 334.386414,333.553040 
	C333.153137,332.257385 332.241760,331.344910 331.330353,330.432404 
	C333.084717,329.522125 334.892212,328.700287 336.583130,327.684418 
	C340.971802,325.047760 342.874298,319.505127 340.915436,315.320892 
	C339.631378,312.578033 334.799744,311.921326 330.082611,313.464081 
	C328.657104,313.930267 326.894592,313.366028 325.286469,313.273804 
	C326.429840,311.836151 327.313293,309.969513 328.786804,309.076721 
	C330.384644,308.108643 332.532074,308.047577 334.457825,308.007751 
	C332.603088,309.255646 330.730377,310.086761 328.857697,310.917908 
	C333.652893,311.849854 339.070709,308.571747 342.646484,314.321411 
	C345.928650,319.599060 342.472992,323.849609 339.758362,329.165314 
	C345.078644,325.615143 346.611511,321.194580 345.522461,316.200012 
	C345.009552,313.847809 345.143188,311.354614 344.955536,308.494324 
	C342.904205,308.369110 339.960571,308.189453 337.016968,308.009796 
z"/>
<path fill="#54A19C" opacity="1.000000" stroke="none" 
	d="
M326.352722,286.810425 
	C329.051849,286.332886 332.164368,285.942078 334.853851,285.604401 
	C329.004547,280.651855 310.316986,283.022766 301.203735,291.847412 
	C305.645355,284.679504 313.232788,282.853851 321.035278,282.004272 
	C328.577850,281.183044 336.026733,281.861084 342.269012,286.834015 
	C342.907867,286.395050 343.370361,286.178802 343.698395,285.834503 
	C345.230499,284.226624 345.897705,280.296997 348.991821,282.704834 
	C350.044647,283.524139 349.497925,287.193878 348.813416,289.275482 
	C347.605865,292.947449 345.911743,296.500366 344.029205,299.885101 
	C343.442169,300.940552 341.591064,301.292908 340.318604,301.967133 
	C339.845001,300.864288 339.042236,299.784149 338.964325,298.654022 
	C338.786896,296.080780 341.962250,292.880707 338.564270,291.046570 
	C334.940674,289.090698 330.723907,288.233856 326.352722,286.810425 
M341.815277,291.952911 
	C342.122772,293.176910 342.430298,294.400940 342.737793,295.624939 
	C343.195160,295.600739 343.652527,295.576538 344.109863,295.552338 
	C345.416046,292.084564 346.722198,288.616821 348.028381,285.149048 
	C347.683746,285.047058 347.339142,284.945099 346.994537,284.843109 
	C345.194763,286.980560 343.394989,289.118011 341.815277,291.952911 
z"/>
<path fill="#68C6C1" opacity="1.000000" stroke="none" 
	d="
M410.985260,333.904175 
	C402.543365,333.996765 394.101471,334.089355 385.293457,333.685059 
	C386.110352,332.372040 387.358063,331.633759 388.459106,330.718964 
	C389.691559,329.695038 391.690277,328.579987 391.781738,327.384216 
	C392.067566,323.647827 391.611053,319.854675 391.442261,316.083527 
	C391.461517,312.624939 391.480804,309.166382 392.023499,305.321350 
	C393.630249,304.970001 394.713593,305.005127 395.860596,305.502380 
	C395.942719,313.663269 395.961212,321.361969 396.074890,329.397644 
	C398.668121,329.630768 401.166138,329.526917 404.396851,329.392609 
	C404.922119,329.629791 406.533295,330.160248 407.919220,331.043945 
	C409.078033,331.782837 409.973267,332.935028 410.985260,333.904175 
z"/>
<path fill="#57ABA6" opacity="1.000000" stroke="none" 
	d="
M411.383057,333.968872 
	C409.973267,332.935028 409.078033,331.782837 407.919220,331.043945 
	C406.533295,330.160248 404.922119,329.629791 404.396851,329.392609 
	C401.166138,329.526917 398.668121,329.630768 396.518311,329.404297 
	C400.432831,329.545898 400.250977,327.199951 400.431610,324.711334 
	C400.954590,317.505951 401.715973,310.317871 402.547913,303.639282 
	C402.890472,307.900909 403.068878,311.646210 403.247284,315.391541 
	C403.698242,315.337891 404.149200,315.284241 404.600159,315.230621 
	C403.916168,310.961884 403.232178,306.693146 402.349487,302.314728 
	C401.994965,301.902466 402.021149,301.616791 402.618408,301.248718 
	C404.281555,300.756165 405.555664,300.362946 406.829742,299.969696 
	C406.816528,307.730438 407.037415,315.501678 406.691376,323.247528 
	C406.518280,327.122345 407.017273,329.627350 411.487488,329.996490 
	C412.381927,330.070343 413.167633,331.461395 414.003479,332.245117 
	C413.262604,332.841248 412.521729,333.437408 411.383057,333.968872 
z"/>
<path fill="#57ABA6" opacity="1.000000" stroke="none" 
	d="
M301.613220,246.902069 
	C299.559967,246.368103 297.979187,245.675323 296.238953,244.727936 
	C307.208313,244.215118 318.336182,243.890091 329.466370,243.735168 
	C333.329224,243.681381 335.812469,243.107407 335.317596,238.140030 
	C335.069244,235.647293 336.691254,232.968216 337.620667,230.483521 
	C337.716156,234.345825 338.396240,238.333298 337.304779,241.755875 
	C336.715454,243.603882 333.164734,245.461884 330.833252,245.622757 
	C323.562836,246.124405 316.235535,245.748169 308.932861,245.868256 
	C306.646271,245.905869 304.367798,246.437653 301.613220,246.902069 
z"/>
<path fill="#57ABA6" opacity="1.000000" stroke="none" 
	d="
M423.720764,290.134491 
	C424.100616,291.152039 424.480499,292.169586 424.672363,293.904419 
	C424.084106,295.715210 423.683838,296.808746 422.867676,299.038513 
	C420.984955,295.573944 419.709808,293.227386 418.434631,290.880798 
	C418.374329,290.612610 418.314026,290.344421 418.196411,289.666687 
	C418.139130,289.257111 418.160065,289.270081 418.160065,289.270081 
	C414.948944,289.175812 411.735260,288.993439 408.529510,289.085938 
	C408.069397,289.099213 407.647552,290.438965 406.869263,291.238983 
	C406.377197,289.180267 406.223816,287.047363 406.494263,284.884888 
	C409.656891,284.426117 412.395721,283.996948 415.134521,283.567749 
	C416.448303,283.511749 417.762054,283.455780 419.579071,283.750122 
	C421.006226,284.752655 421.930176,285.404846 422.854095,286.057007 
	C422.884552,286.240479 422.915039,286.423950 422.861206,287.174927 
	C423.091522,288.539795 423.406128,289.337128 423.720764,290.134491 
z"/>
<path fill="#61B9B3" opacity="1.000000" stroke="none" 
	d="
M253.441666,334.846985 
	C253.624130,333.769470 253.989960,332.316528 254.910187,331.722748 
	C263.497650,326.181274 263.525208,326.223999 257.215576,317.044067 
	C257.119629,316.106018 257.164673,315.845459 257.565308,315.617920 
	C260.319641,317.130341 262.718475,318.609711 265.506226,320.328918 
	C265.425018,318.871765 265.380402,318.071381 265.701172,317.232178 
	C267.552246,317.805634 269.037933,318.417908 270.523651,319.030182 
	C270.587830,319.464691 270.652008,319.899200 270.322754,320.780579 
	C268.941315,323.462311 267.953308,325.697144 266.965271,327.931976 
	C266.965271,327.931976 267.002441,327.982208 266.659363,328.038025 
	C265.520203,328.987213 264.724152,329.880585 263.928131,330.773987 
	C263.928131,330.773987 263.816040,330.957611 263.395935,330.946381 
	C261.642944,331.847504 260.310059,332.759888 258.977203,333.672272 
	C258.544891,333.810028 258.112549,333.947784 257.231201,334.025330 
	C256.782166,333.965088 256.347107,334.041565 256.347107,334.041565 
	C255.525482,334.317749 254.703842,334.593933 253.441666,334.846985 
z"/>
<path fill="#57ABA6" opacity="1.000000" stroke="none" 
	d="
M395.796967,305.040222 
	C394.713593,305.005127 393.630249,304.970001 392.140106,304.929138 
	C391.699249,300.021149 391.665192,295.118866 391.731689,289.407898 
	C391.188354,287.918274 390.544403,287.237335 389.942932,286.261841 
	C390.062805,285.578156 390.140198,285.188995 390.564087,284.771790 
	C394.585480,284.803558 398.260406,284.863342 401.933167,285.308777 
	C401.945923,286.465088 401.960815,287.235779 401.571594,288.032715 
	C399.967987,289.210449 398.003296,290.195282 397.709595,291.544006 
	C396.745331,295.971619 396.387695,300.531281 395.796967,305.040222 
z"/>
<path fill="#BCBCBC" opacity="1.000000" stroke="none" 
	d="
M412.297424,232.231247 
	C410.718628,234.060989 408.970215,235.381760 406.667664,236.840897 
	C405.719757,237.391754 405.325989,237.804230 404.932190,238.216705 
	C404.218689,238.750778 403.505157,239.284866 402.151062,239.979828 
	C401.001099,240.744553 400.491760,241.348373 399.982422,241.952209 
	C399.507690,242.264221 399.033020,242.576248 397.991211,242.978638 
	C396.941528,243.573013 396.458923,244.077042 395.976318,244.581055 
	C395.419922,244.947174 394.863556,245.313293 393.751282,245.883957 
	C392.789948,246.598923 392.384552,247.109329 391.979126,247.619751 
	C391.850769,247.727341 391.722412,247.834946 390.885651,248.058563 
	C388.675201,248.063553 387.173218,247.952484 385.884308,247.569305 
	C393.940826,241.810120 401.784210,236.323074 409.981750,230.856903 
	C410.803589,230.825928 411.271301,230.774063 411.738983,230.722183 
	C411.868561,231.055542 411.998169,231.388916 412.297424,232.231247 
z"/>
<path fill="#477E7A" opacity="1.000000" stroke="none" 
	d="
M379.892700,291.935181 
	C379.161438,294.222382 378.666870,296.633270 377.571533,298.730347 
	C377.183746,299.472778 374.997284,300.052612 374.230347,299.627380 
	C373.225647,299.070404 372.066284,297.280151 372.279755,296.306976 
	C373.088470,292.620667 374.162415,288.938721 375.636780,285.467377 
	C377.138489,281.931702 380.022308,281.238312 383.357147,283.442322 
	C377.192688,284.370148 373.139038,291.179382 375.252350,297.869568 
	C376.880707,295.787109 378.386719,293.861145 379.892700,291.935181 
z"/>
<path fill="#57ABA6" opacity="1.000000" stroke="none" 
	d="
M357.154602,201.170868 
	C361.619293,200.018265 359.964539,202.912048 358.812561,204.368896 
	C353.415375,211.194412 347.765991,217.820496 341.865967,224.576233 
	C346.062408,218.576675 350.661011,212.563049 355.090515,206.427322 
	C356.108551,205.017166 356.545532,203.187576 357.154602,201.170868 
z"/>
<path fill="#73D3CD" opacity="1.000000" stroke="none" 
	d="
M336.682129,307.979126 
	C339.960571,308.189453 342.904205,308.369110 344.955536,308.494324 
	C345.143188,311.354614 345.009552,313.847809 345.522461,316.200012 
	C346.611511,321.194580 345.078644,325.615143 339.758362,329.165314 
	C342.472992,323.849609 345.928650,319.599060 342.646484,314.321411 
	C339.070709,308.571747 333.652893,311.849854 328.857697,310.917908 
	C330.730377,310.086761 332.603088,309.255646 334.739136,308.201782 
	C335.450714,307.968842 335.899017,307.958649 336.682129,307.979126 
z"/>
<path fill="#68C6C1" opacity="1.000000" stroke="none" 
	d="
M379.931396,291.699524 
	C378.386719,293.861145 376.880707,295.787109 375.252350,297.869568 
	C373.139038,291.179382 377.192688,284.370148 383.581909,283.669373 
	C384.928680,283.475739 385.966614,283.473328 387.532196,283.774902 
	C388.779114,284.319183 389.498352,284.559509 390.217621,284.799835 
	C390.140198,285.188995 390.062805,285.578156 389.495239,286.287079 
	C387.210602,286.619720 385.416107,286.646271 383.621674,286.642395 
	C380.660461,286.636017 379.451599,288.076843 379.987549,290.986633 
	C379.987549,290.986633 379.970032,291.463898 379.931396,291.699524 
z"/>
<path fill="#61B9B3" opacity="1.000000" stroke="none" 
	d="
M230.420181,298.976379 
	C231.559097,299.355896 232.698029,299.735413 234.139740,300.113708 
	C234.723709,300.182892 235.004898,300.253326 235.737946,300.874390 
	C238.441376,302.015594 240.692947,302.606140 242.944519,303.196655 
	C243.720261,303.232361 244.496017,303.268066 245.717926,303.719666 
	C246.756943,304.438416 247.349777,304.741302 247.842438,305.393250 
	C247.576370,306.448792 247.410477,307.155334 246.782288,307.834534 
	C244.534164,307.484253 242.597702,307.496735 240.990952,306.775085 
	C236.292068,304.664612 230.062729,305.276184 227.924316,299.283997 
	C229.083984,299.117584 229.752075,299.046997 230.420181,298.976379 
z"/>
<path fill="#477E7A" opacity="1.000000" stroke="none" 
	d="
M391.187561,316.328796 
	C391.611053,319.854675 392.067566,323.647827 391.781738,327.384216 
	C391.690277,328.579987 389.691559,329.695038 388.459106,330.718964 
	C387.358063,331.633759 386.110352,332.372040 384.957489,333.593689 
	C381.882141,333.820648 381.266998,331.137787 383.585083,330.588501 
	C390.633606,328.918274 389.974304,323.889343 390.095367,318.852051 
	C390.113770,318.086487 390.640961,317.333099 391.187561,316.328796 
z"/>
<path fill="#477E7A" opacity="1.000000" stroke="none" 
	d="
M262.307068,183.729950 
	C262.003113,178.651825 262.009705,173.456192 262.102142,168.262100 
	C262.187286,163.476486 260.571564,162.326294 255.581573,163.960114 
	C257.390808,163.342499 259.532990,162.204468 261.590820,162.340652 
	C262.368286,162.392090 263.529694,165.392609 263.516541,167.040863 
	C263.472504,172.566879 262.977478,178.089310 262.307068,183.729950 
z"/>
<path fill="#68C6C1" opacity="1.000000" stroke="none" 
	d="
M401.975739,288.006439 
	C401.960815,287.235779 401.945923,286.465088 402.347107,285.305298 
	C403.865631,284.915649 404.968018,284.915070 406.070435,284.914490 
	C406.223816,287.047363 406.377197,289.180267 406.727234,291.646912 
	C406.936340,294.351074 406.948822,296.721436 406.895538,299.530762 
	C405.555664,300.362946 404.281555,300.756165 402.553436,300.801941 
	C402.058197,296.305115 402.016968,292.155792 401.975739,288.006439 
z"/>
<path fill="#61B9B3" opacity="1.000000" stroke="none" 
	d="
M254.924408,306.002197 
	C255.698044,306.055328 256.471680,306.108490 257.747437,306.590942 
	C260.196350,308.096710 262.208221,309.072296 264.073456,310.275208 
	C266.377747,311.761322 266.493683,313.198425 263.294800,314.141266 
	C258.067841,312.019440 253.180649,309.961670 248.719879,307.598389 
	C249.759964,306.457123 250.373642,305.621307 250.987320,304.785522 
	C251.844086,304.944733 252.700867,305.103943 253.997528,305.619141 
	C254.437408,305.975098 254.924408,306.002197 254.924408,306.002197 
z"/>
<path fill="#54A19C" opacity="1.000000" stroke="none" 
	d="
M329.695221,330.421448 
	C325.184479,333.255127 318.235443,332.377838 314.466156,327.554077 
	C312.052856,324.465668 311.031708,320.289459 309.576752,316.333038 
	C310.459747,317.328430 311.366577,318.521088 311.810181,319.866455 
	C314.584015,328.279877 318.575134,330.701843 329.695221,330.421448 
z"/>
<path fill="#B4B4B4" opacity="1.000000" stroke="none" 
	d="
M381.721893,227.694305 
	C372.212189,232.778290 376.217529,242.555466 374.150269,250.706772 
	C373.872345,245.903503 372.937683,240.540100 374.148804,235.715302 
	C374.920380,232.641479 378.873047,230.366180 381.721893,227.694305 
z"/>
<path fill="#58AFAA" opacity="1.000000" stroke="none" 
	d="
M263.634552,314.205292 
	C266.493683,313.198425 266.377747,311.761322 264.073456,310.275208 
	C262.208221,309.072296 260.196350,308.096710 258.110687,306.729950 
	C264.529510,307.907837 269.187225,311.416412 270.614349,318.663513 
	C269.037933,318.417908 267.552246,317.805634 265.433136,317.094421 
	C264.411346,316.065430 264.022949,315.135345 263.634552,314.205292 
z"/>
<path fill="#477E7A" opacity="1.000000" stroke="none" 
	d="
M406.494263,284.884888 
	C404.968018,284.915070 403.865631,284.915649 402.349274,284.919647 
	C398.260406,284.863342 394.585480,284.803558 390.564087,284.771790 
	C389.498352,284.559509 388.779114,284.319183 387.917511,283.832031 
	C396.589844,283.481995 405.404510,283.378815 414.676849,283.421692 
	C412.395721,283.996948 409.656891,284.426117 406.494263,284.884888 
z"/>
<path fill="#477E7A" opacity="1.000000" stroke="none" 
	d="
M299.834534,292.401001 
	C298.451172,298.311096 296.768433,304.340851 294.932068,310.793060 
	C292.227905,303.931488 294.550507,297.887421 299.834534,292.401001 
z"/>
<path fill="#477E7A" opacity="1.000000" stroke="none" 
	d="
M418.332031,291.267090 
	C419.709808,293.227386 420.984955,295.573944 422.867676,299.038513 
	C423.683838,296.808746 424.084106,295.715210 424.665771,294.337097 
	C425.524048,295.385681 426.668152,296.710114 426.693390,298.055511 
	C426.707367,298.800629 424.715637,300.328094 423.866058,300.175720 
	C422.481049,299.927277 420.825317,298.861084 420.128571,297.652802 
	C419.105194,295.878082 418.825806,293.674316 418.332031,291.267090 
z"/>
<path fill="#AFAFAF" opacity="1.000000" stroke="none" 
	d="
M260.232880,256.449158 
	C260.275970,251.518616 260.655518,246.434708 261.366821,241.169617 
	C261.322144,246.090866 260.945740,251.193344 260.232880,256.449158 
z"/>
<path fill="#54A19C" opacity="1.000000" stroke="none" 
	d="
M310.006287,301.652649 
	C309.061890,296.398895 312.433594,293.099457 316.682373,290.054901 
	C314.738037,293.791718 312.447571,297.563293 310.006287,301.652649 
z"/>
<path fill="#477E7A" opacity="1.000000" stroke="none" 
	d="
M294.653564,316.271057 
	C296.651031,319.229370 298.480072,322.469757 300.312012,326.056274 
	C298.371674,323.119293 296.428436,319.836182 294.653564,316.271057 
z"/>
<path fill="#477E7A" opacity="1.000000" stroke="none" 
	d="
M380.267426,290.711212 
	C379.451599,288.076843 380.660461,286.636017 383.621674,286.642395 
	C385.416107,286.646271 387.210602,286.619720 389.452759,286.581604 
	C390.544403,287.237335 391.188354,287.918274 391.785767,288.964905 
	C387.858398,288.178314 384.018219,287.437164 380.267426,290.711212 
z"/>
<path fill="#B4B4B4" opacity="1.000000" stroke="none" 
	d="
M410.836151,206.730316 
	C408.034271,209.073013 404.925385,211.509460 401.475372,214.004791 
	C404.265900,211.650452 407.397522,209.237244 410.836151,206.730316 
z"/>
<path fill="#58AFAA" opacity="1.000000" stroke="none" 
	d="
M267.283752,327.816956 
	C267.953308,325.697144 268.941315,323.462311 270.221619,321.098206 
	C269.543335,323.213257 268.572784,325.457581 267.283752,327.816956 
z"/>
<path fill="#5BA6A2" opacity="1.000000" stroke="none" 
	d="
M242.639984,303.053162 
	C240.692947,302.606140 238.441376,302.015594 236.070557,301.154419 
	C238.079376,301.559082 240.207413,302.234406 242.639984,303.053162 
z"/>
<path fill="#54A19C" opacity="1.000000" stroke="none" 
	d="
M309.827332,312.614136 
	C306.845215,310.314270 307.484100,307.325012 309.452698,304.108856 
	C309.835449,306.689880 309.882477,309.429016 309.827332,312.614136 
z"/>
<path fill="#477E7A" opacity="1.000000" stroke="none" 
	d="
M383.192322,155.213486 
	C380.779175,155.133560 378.569427,155.021118 376.044678,155.030487 
	C378.155579,151.352921 379.234314,151.244675 383.637085,154.674728 
	C383.754791,154.978745 383.395752,155.180969 383.192322,155.213486 
z"/>
<path fill="#B4B4B4" opacity="1.000000" stroke="none" 
	d="
M395.739624,192.097534 
	C397.996002,193.571625 400.404297,195.298874 402.919891,197.320923 
	C400.648651,195.860718 398.270111,194.105698 395.739624,192.097534 
z"/>
<path fill="#54A19C" opacity="1.000000" stroke="none" 
	d="
M305.343475,329.819672 
	C307.828186,330.956757 310.312927,332.093872 312.930511,333.541412 
	C310.612549,332.924988 308.161682,331.998108 305.459106,330.676025 
	C305.207336,330.280823 305.343475,329.819672 305.343475,329.819672 
z"/>
<path fill="#AFAFAF" opacity="1.000000" stroke="none" 
	d="
M260.189026,234.904587 
	C260.484161,235.238678 260.573395,235.287766 260.773682,235.305161 
	C260.982605,235.520203 261.225342,235.763077 261.574829,236.509827 
	C260.297699,236.711838 258.913849,236.409943 257.222778,236.115112 
	C256.915527,236.122162 256.859436,236.208511 256.859436,236.208511 
	C256.895569,235.226761 256.931702,234.245026 256.969299,232.894821 
	C257.926575,233.225388 258.882416,233.924423 260.189026,234.904587 
z"/>
<path fill="#B4B4B4" opacity="1.000000" stroke="none" 
	d="
M386.961029,250.967316 
	C385.498779,252.023834 384.036560,253.080368 382.250488,253.777008 
	C381.716187,252.594131 381.505646,251.771149 381.314392,250.854828 
	C381.333618,250.761490 381.524200,250.761932 381.844238,251.020233 
	C383.665161,251.101562 385.166046,250.924591 386.740417,250.802597 
	C386.813873,250.857574 386.961029,250.967316 386.961029,250.967316 
z"/>
<path fill="#B4B4B4" opacity="1.000000" stroke="none" 
	d="
M373.783691,254.218597 
	C374.762604,254.242126 375.629333,254.510880 376.808563,254.920288 
	C376.697327,255.654816 376.273651,256.248657 375.849945,256.842499 
	C375.123810,256.049622 374.397675,255.256714 373.783691,254.218597 
z"/>
<path fill="#58AFAA" opacity="1.000000" stroke="none" 
	d="
M259.303558,333.672882 
	C260.310059,332.759888 261.642944,331.847504 263.298645,330.900452 
	C262.290955,331.801697 260.960449,332.737579 259.303558,333.672882 
z"/>
<path fill="#AFAFAF" opacity="1.000000" stroke="none" 
	d="
M237.652542,217.779846 
	C236.221634,217.017090 234.685638,215.963562 233.030945,214.623062 
	C234.457321,215.387085 236.002380,216.438095 237.652542,217.779846 
z"/>
<path fill="#BCBCBC" opacity="1.000000" stroke="none" 
	d="
M381.295135,250.948181 
	C381.505646,251.771149 381.716187,252.594131 381.951538,253.842880 
	C380.886536,254.746948 379.796661,255.225266 378.353821,255.385849 
	C378.006775,254.582687 378.012695,254.097260 378.325195,253.130585 
	C379.519562,252.082275 380.407349,251.515228 381.295135,250.948181 
z"/>
<path fill="#54A19C" opacity="1.000000" stroke="none" 
	d="
M318.257416,289.638702 
	C319.377441,288.715332 320.835144,287.801971 322.641724,286.944946 
	C321.525452,287.883728 320.060303,288.766235 318.257416,289.638702 
z"/>
<path fill="#477E7A" opacity="1.000000" stroke="none" 
	d="
M375.374817,176.287079 
	C376.646423,176.997894 377.837708,178.010468 379.052307,179.318298 
	C377.815247,178.605316 376.554871,177.597076 375.374817,176.287079 
z"/>
<path fill="#73D3CD" opacity="1.000000" stroke="none" 
	d="
M331.204956,330.411560 
	C332.241760,331.344910 333.153137,332.257385 334.000916,333.486816 
	C333.762787,333.843262 333.588226,333.882812 332.846161,333.814575 
	C331.858521,333.644440 331.438385,333.582153 331.018250,333.519867 
	C331.010681,332.793640 331.003113,332.067413 330.977722,330.978058 
	C330.959839,330.614929 331.079590,330.390747 331.204956,330.411560 
z"/>
<path fill="#42918B" opacity="1.000000" stroke="none" 
	d="
M304.763916,188.420593 
	C304.943054,187.196121 305.347260,185.718704 306.032776,184.066162 
	C305.872406,185.316574 305.430695,186.742111 304.763916,188.420593 
z"/>
<path fill="#B4B4B4" opacity="1.000000" stroke="none" 
	d="
M391.705688,189.085617 
	C392.711517,189.537079 393.836029,190.241257 395.048920,191.230270 
	C394.032959,190.789505 392.928650,190.063919 391.705688,189.085617 
z"/>
<path fill="#57ABA6" opacity="1.000000" stroke="none" 
	d="
M341.224731,224.740875 
	C340.859497,225.836609 340.203491,227.021378 339.213989,228.206635 
	C339.565002,227.081375 340.249512,225.955658 341.224731,224.740875 
z"/>
<path fill="#B4B4B4" opacity="1.000000" stroke="none" 
	d="
M407.483215,201.136688 
	C408.523285,201.635269 409.707214,202.394150 410.986389,203.444336 
	C409.930084,202.956100 408.778595,202.176544 407.483215,201.136688 
z"/>
<path fill="#B4B4B4" opacity="1.000000" stroke="none" 
	d="
M400.730774,214.162231 
	C399.918274,215.045044 398.784821,215.977722 397.316162,216.951508 
	C398.123871,216.065796 399.266846,215.138962 400.730774,214.162231 
z"/>
<path fill="#5BA6A2" opacity="1.000000" stroke="none" 
	d="
M247.942627,305.044189 
	C247.349777,304.741302 246.756943,304.438416 246.065186,303.899353 
	C247.300156,303.899292 248.634003,304.135437 249.836334,304.614624 
	C249.117416,304.919861 248.530029,304.982025 247.942627,305.044189 
z"/>
<path fill="#477E7A" opacity="1.000000" stroke="none" 
	d="
M422.897949,285.717651 
	C421.930176,285.404846 421.006226,284.752655 419.965240,283.836761 
	C420.879364,284.174774 421.910583,284.776520 422.897949,285.717651 
z"/>
<path fill="#B4B4B4" opacity="1.000000" stroke="none" 
	d="
M391.740540,220.489777 
	C391.001282,221.286819 389.972015,222.145020 388.645020,223.064682 
	C389.381683,222.267715 390.416107,221.409317 391.740540,220.489777 
z"/>
<path fill="#B4B4B4" opacity="1.000000" stroke="none" 
	d="
M387.792603,223.325531 
	C387.022339,224.171951 385.943512,225.062210 384.554688,226.015762 
	C385.324463,225.175827 386.404236,224.272598 387.792603,223.325531 
z"/>
<path fill="#58AFAA" opacity="1.000000" stroke="none" 
	d="
M264.248291,330.746918 
	C264.724152,329.880585 265.520203,328.987213 266.628601,328.032349 
	C266.150146,328.887207 265.359314,329.803528 264.248291,330.746918 
z"/>
<path fill="#477E7A" opacity="1.000000" stroke="none" 
	d="
M305.107391,329.604614 
	C305.343475,329.819672 305.207336,330.280823 305.143524,330.512573 
	C303.898621,329.950928 302.717499,329.157562 301.538147,328.044708 
	C302.650360,328.279999 303.760834,328.834778 305.107391,329.604614 
z"/>
<path fill="#B4B4B4" opacity="1.000000" stroke="none" 
	d="
M385.671204,247.841431 
	C387.173218,247.952484 388.675201,248.063553 390.639160,248.107132 
	C389.940796,248.976974 388.780457,249.914276 387.290588,250.909454 
	C386.961029,250.967316 386.813873,250.857574 386.638367,250.308273 
	C386.071899,249.212158 385.680908,248.665329 385.326355,247.968231 
	C385.362793,247.817963 385.671204,247.841431 385.671204,247.841431 
z"/>
<path fill="#B4B4B4" opacity="1.000000" stroke="none" 
	d="
M388.096649,186.289825 
	C388.974457,186.661514 389.957092,187.319916 391.034546,188.274185 
	C390.153381,187.905548 389.177429,187.241043 388.096649,186.289825 
z"/>
<path fill="#477E7A" opacity="1.000000" stroke="none" 
	d="
M380.927002,180.665161 
	C381.958588,181.301804 382.936554,182.063995 384.017944,183.101730 
	C383.174744,182.806412 382.228088,182.235565 381.091858,181.363495 
	C380.902252,181.062271 380.873352,180.790726 380.927002,180.665161 
z"/>
<path fill="#58AFAA" opacity="1.000000" stroke="none" 
	d="
M247.842453,305.393219 
	C248.530029,304.982025 249.117416,304.919861 250.139908,304.774536 
	C250.574997,304.691376 250.815079,304.590179 250.901199,304.687866 
	C250.373642,305.621307 249.759964,306.457123 248.596115,307.658081 
	C247.751434,308.077545 247.484314,308.023743 247.244583,307.861847 
	C247.410477,307.155334 247.576370,306.448792 247.842453,305.393219 
z"/>
<path fill="#477E7A" opacity="1.000000" stroke="none" 
	d="
M423.981354,289.950775 
	C423.406128,289.337128 423.091522,288.539795 422.839661,287.453064 
	C423.348969,288.031464 423.795471,288.899261 423.981354,289.950775 
z"/>
<path fill="#AFAFAF" opacity="1.000000" stroke="none" 
	d="
M235.221924,203.736023 
	C235.621704,203.173126 236.310272,202.590988 237.292862,201.993042 
	C236.894821,202.557083 236.202759,203.136932 235.221924,203.736023 
z"/>
<path fill="#AFAFAF" opacity="1.000000" stroke="none" 
	d="
M231.220062,206.302948 
	C231.418259,206.007706 231.862198,205.593323 232.502563,205.215912 
	C232.287918,205.563202 231.876846,205.873505 231.220062,206.302948 
z"/>
<path fill="#B4B4B4" opacity="1.000000" stroke="none" 
	d="
M392.227478,247.590836 
	C392.384552,247.109329 392.789948,246.598923 393.449280,246.036194 
	C393.294098,246.509903 392.884979,247.035904 392.227478,247.590836 
z"/>
<path fill="#B4B4B4" opacity="1.000000" stroke="none" 
	d="
M396.233337,244.491974 
	C396.458923,244.077042 396.941528,243.573013 397.701965,243.030853 
	C397.483337,243.462784 396.986847,243.932831 396.233337,244.491974 
z"/>
<path fill="#AFAFAF" opacity="1.000000" stroke="none" 
	d="
M400.299622,241.924622 
	C400.491760,241.348373 401.001099,240.744553 401.821869,240.098663 
	C401.627808,240.670105 401.122345,241.283569 400.299622,241.924622 
z"/>
<path fill="#AFAFAF" opacity="1.000000" stroke="none" 
	d="
M405.109924,238.098450 
	C405.325989,237.804230 405.719757,237.391754 406.345673,236.968216 
	C406.147766,237.298172 405.717712,237.639175 405.109924,238.098450 
z"/>
<path fill="#AFAFAF" opacity="1.000000" stroke="none" 
	d="
M256.185822,188.500854 
	C256.376221,188.143311 256.843933,187.683258 257.522095,187.268707 
	C257.309387,187.675598 256.886261,188.036987 256.185822,188.500854 
z"/>
<path fill="#AFAFAF" opacity="1.000000" stroke="none" 
	d="
M249.223328,193.690887 
	C249.447952,193.208374 249.968750,192.669373 250.781860,192.079224 
	C250.555954,192.563492 250.037735,193.098953 249.223328,193.690887 
z"/>
<path fill="#B4B4B4" opacity="1.000000" stroke="none" 
	d="
M405.111816,199.256805 
	C405.589905,199.410538 406.240082,199.797333 406.992310,200.465820 
	C406.490906,200.328308 405.887390,199.909073 405.111816,199.256805 
z"/>
<path fill="#AFAFAF" opacity="1.000000" stroke="none" 
	d="
M230.618484,212.485931 
	C230.181381,212.459564 229.629395,212.172958 229.028046,211.681976 
	C229.487000,211.726990 229.995300,211.976334 230.618484,212.485931 
z"/>
<path fill="#54A19C" opacity="1.000000" stroke="none" 
	d="
M322.354126,334.877258 
	C322.840149,334.683472 323.693512,334.600647 324.772827,334.674286 
	C324.239716,334.883240 323.480591,334.935699 322.354126,334.877258 
z"/>
<path fill="#54A19C" opacity="1.000000" stroke="none" 
	d="
M313.449036,334.016602 
	C313.908569,333.865051 314.596527,333.846924 315.518158,333.944305 
	C315.060394,334.089874 314.368896,334.119965 313.449036,334.016602 
z"/>
<path fill="#54A19C" opacity="1.000000" stroke="none" 
	d="
M330.959473,333.690186 
	C331.438385,333.582153 331.858521,333.644440 332.577698,333.816162 
	C332.383728,334.086884 331.890686,334.248169 331.144348,334.315094 
	C330.891052,334.220734 330.900665,333.860504 330.959473,333.690186 
z"/>
<path fill="#477E7A" opacity="1.000000" stroke="none" 
	d="
M300.441254,327.074097 
	C300.793854,326.739716 301.026703,326.830383 301.178162,327.325012 
	C301.174622,327.528778 300.726257,327.618530 300.726257,327.618530 
	C300.726257,327.618530 300.399353,327.298889 300.441254,327.074097 
z"/>
<path fill="#58AFAA" opacity="1.000000" stroke="none" 
	d="
M256.450989,334.123505 
	C256.347107,334.041565 256.782166,333.965088 256.892090,333.982605 
	C256.908264,334.188995 256.759216,334.257446 256.450989,334.123505 
z"/>
<path fill="#5BA6A2" opacity="1.000000" stroke="none" 
	d="
M254.845337,305.878357 
	C254.924408,306.002197 254.437408,305.975098 254.335419,305.906189 
	C254.387619,305.658936 254.565231,305.631348 254.845337,305.878357 
z"/>
<path fill="#477E7A" opacity="1.000000" stroke="none" 
	d="
M418.082214,289.239441 
	C418.160065,289.270081 418.139130,289.257111 418.156860,289.256226 
	C418.174622,289.255371 418.004333,289.208801 418.082214,289.239441 
z"/>
<path fill="#57ABA6" opacity="1.000000" stroke="none" 
	d="
M342.232117,252.662781 
	C342.267059,252.614319 342.211517,252.657608 342.182251,252.678604 
	C342.153015,252.699600 342.211670,252.788666 342.195374,252.745422 
	C342.179077,252.702194 342.197144,252.711258 342.232117,252.662781 
z"/>
<path fill="#57ABA6" opacity="1.000000" stroke="none" 
	d="
M340.759338,251.817322 
	C339.546722,252.618988 338.072174,253.276962 336.233887,253.902435 
	C337.412537,253.137817 338.954926,252.405716 340.759338,251.817322 
z"/>
<path fill="#57ABA6" opacity="1.000000" stroke="none" 
	d="
M332.834381,253.958267 
	C332.450867,254.512192 331.893494,254.887497 331.156158,255.084976 
	C331.537628,254.531311 332.099060,254.155487 332.834381,253.958267 
z"/>
<path fill="#090909" opacity="1.000000" stroke="none" 
	d="
M256.864960,236.131683 
	C256.814392,241.736450 256.814392,247.331711 256.814392,254.084244 
	C236.943787,238.880661 217.764236,224.205826 198.132935,209.185333 
	C218.532211,194.586151 238.232269,180.487381 258.659943,165.867874 
	C258.659943,171.265808 258.877625,176.281662 258.509033,181.254044 
	C258.415253,182.519119 256.620422,183.868515 255.333115,184.800766 
	C246.599045,191.125946 237.765564,197.313705 229.016235,203.618073 
	C222.489441,208.320984 222.602707,211.121964 229.801880,216.172729 
	C230.860428,216.914078 231.472916,217.298737 232.085403,217.683395 
	C237.784454,222.100327 243.483505,226.517273 249.677094,231.308563 
	C251.122604,232.314148 252.073563,232.945343 253.024521,233.576538 
	C254.102737,234.417923 255.180954,235.259293 256.559326,236.154587 
	C256.859436,236.208511 256.915527,236.122162 256.864960,236.131683 
z"/>
<path fill="#AFAFAF" opacity="1.000000" stroke="none" 
	d="
M252.892700,233.234390 
	C252.073563,232.945343 251.122604,232.314148 250.016663,231.368698 
	C250.828079,231.667053 251.794479,232.279648 252.892700,233.234390 
z"/>
<path fill="#AFAFAF" opacity="1.000000" stroke="none" 
	d="
M231.981445,217.417999 
	C231.472916,217.298737 230.860428,216.914078 230.141754,216.258408 
	C230.649536,216.375809 231.263519,216.764191 231.981445,217.417999 
z"/>
<path fill="#5DDBD3" opacity="1.000000" stroke="none" 
	d="
M290.913513,172.530518 
	C302.393127,166.510361 314.341949,163.572754 327.110077,164.674454 
	C332.635620,165.151215 337.860168,166.356415 341.333527,172.666412 
	C335.890411,173.240997 331.069641,173.988388 326.225586,174.197998 
	C320.751709,174.434860 315.240540,173.936371 309.780243,174.291138 
	C307.905609,174.412933 306.135406,176.142563 304.351196,177.499023 
	C304.438446,185.133118 300.954620,190.819992 296.495453,196.209396 
	C292.051941,201.579865 287.820221,207.136688 283.739471,212.787872 
	C282.806976,214.079269 282.059052,216.612900 282.707672,217.630875 
	C283.381042,218.687698 285.907349,219.093826 287.524323,218.910645 
	C291.035675,218.512848 294.483948,217.558334 297.957977,216.831421 
	C298.142700,217.326630 298.327393,217.821823 298.512085,218.317017 
	C297.402618,218.882050 296.317474,219.502335 295.179779,220.003326 
	C286.585907,223.787842 277.819092,227.227951 269.454834,231.463837 
	C265.726776,233.351822 264.344055,232.914185 263.659088,229.062332 
	C261.623108,217.613052 264.557251,207.114426 269.523102,196.900940 
	C274.401031,186.868362 282.801910,180.054977 290.913513,172.530518 
z"/>
<path fill="#5DDBD3" opacity="1.000000" stroke="none" 
	d="
M309.813385,219.506531 
	C308.848328,219.018570 308.225555,218.636780 307.602814,218.254990 
	C307.713928,217.833954 307.825043,217.412933 307.936157,216.991898 
	C310.056793,217.336197 312.177429,217.680481 314.298035,218.024780 
	C314.290497,218.554092 314.282928,219.083389 314.275360,219.612701 
	C312.902130,219.612701 311.528900,219.612701 309.813385,219.506531 
z"/>
<path fill="#0B2928" opacity="1.000000" stroke="none" 
	d="
M246.782288,307.834534 
	C247.484314,308.023743 247.751434,308.077545 248.169708,307.963562 
	C253.180649,309.961670 258.067841,312.019440 263.294800,314.141266 
	C264.022949,315.135345 264.411346,316.065430 265.067780,317.133240 
	C265.380402,318.071381 265.425018,318.871765 265.506226,320.328918 
	C262.718475,318.609711 260.319641,317.130341 257.260468,315.450836 
	C254.602539,314.634583 252.604980,314.018494 250.428589,313.145203 
	C249.456085,312.753448 248.662415,312.618896 247.466675,312.417053 
	C245.711655,312.222931 244.358704,312.096130 243.005737,311.969330 
	C238.659409,310.255829 234.214554,308.750397 230.001648,306.755188 
	C227.223541,305.439484 225.258774,303.189301 226.819214,299.482605 
	C227.117676,299.328278 227.432739,299.379822 227.432739,299.379822 
	C230.062729,305.276184 236.292068,304.664612 240.990952,306.775085 
	C242.597702,307.496735 244.534164,307.484253 246.782288,307.834534 
z"/>
<path fill="#73D3CD" opacity="1.000000" stroke="none" 
	d="
M227.924316,299.283997 
	C227.432739,299.379822 227.117676,299.328278 227.021790,299.200195 
	C226.963364,298.884186 227.000839,298.696259 226.958008,297.921204 
	C226.219681,296.965118 225.561646,296.596100 224.903610,296.227112 
	C223.413071,290.965179 226.482742,287.344269 233.620987,286.532257 
	C230.276962,290.015900 227.930145,293.548218 230.290390,298.600830 
	C229.752075,299.046997 229.083984,299.117584 227.924316,299.283997 
z"/>
<path fill="#73D3CD" opacity="1.000000" stroke="none" 
	d="
M250.607407,313.402405 
	C252.604980,314.018494 254.602539,314.634583 256.904907,315.417786 
	C257.164673,315.845459 257.119629,316.106018 257.038696,316.763672 
	C252.814453,316.619629 248.626068,316.078461 244.055603,315.477570 
	C243.451569,314.509644 243.229599,313.601410 243.006683,312.331268 
	C244.358704,312.096130 245.711655,312.222931 247.627991,312.702484 
	C248.996704,313.170959 249.802063,313.286682 250.607407,313.402405 
z"/>
<path fill="#61B9B3" opacity="1.000000" stroke="none" 
	d="
M225.021149,296.488586 
	C225.561646,296.596100 226.219681,296.965118 226.952667,297.633789 
	C226.397964,297.539032 225.768326,297.144531 225.021149,296.488586 
z"/>
<path fill="#080808" opacity="1.000000" stroke="none" 
	d="
M381.314392,250.854828 
	C380.407349,251.515228 379.519562,252.082275 378.335999,252.766632 
	C378.048706,247.415161 377.934937,241.941208 378.164734,236.481720 
	C378.213104,235.333176 379.280151,233.904434 380.289093,233.169083 
	C391.036163,225.336014 401.902313,217.666382 412.656586,209.843033 
	C417.262299,206.492538 417.347504,204.184586 412.912323,200.734482 
	C402.732025,192.815292 392.682220,184.685928 382.064484,177.391495 
	C377.519470,174.269043 379.460754,170.548309 379.108398,167.008667 
	C378.797058,163.880936 379.208862,160.678940 379.383026,157.514236 
	C379.389374,157.398499 380.259552,157.330307 381.079224,157.279816 
	C391.313385,165.016083 401.172119,172.742645 411.083801,180.400635 
	C421.808960,188.687103 432.583527,196.909546 444.092285,205.739761 
	C433.382751,213.519699 422.946655,221.100983 411.963104,228.967560 
	C410.819611,229.780579 410.223633,230.308304 409.627625,230.836014 
	C401.784210,236.323074 393.940826,241.810120 385.884308,247.569305 
	C385.671204,247.841431 385.362793,247.817963 385.082642,248.010254 
	C383.709717,249.055695 382.616943,249.908813 381.524200,250.761932 
	C381.524200,250.761932 381.333618,250.761490 381.314392,250.854828 
z"/>
<path fill="#AFAFAF" opacity="1.000000" stroke="none" 
	d="
M409.981750,230.856903 
	C410.223633,230.308304 410.819611,229.780579 411.717041,229.213089 
	C411.977081,229.522812 411.935730,229.872284 411.816681,230.471985 
	C411.271301,230.774063 410.803589,230.825928 409.981750,230.856903 
z"/>
<path fill="#090909" opacity="1.000000" stroke="none" 
	d="
M302.063721,297.006256 
	C302.359985,296.528442 302.656250,296.050659 303.375702,295.408386 
	C304.277435,295.581360 304.755920,295.918793 305.229950,296.585449 
	C305.306458,297.338837 305.387482,297.763031 305.468506,298.187195 
	C305.358002,298.887665 305.247498,299.588165 304.787415,300.852234 
	C304.029236,303.771423 303.408905,306.113617 303.259613,308.485504 
	C303.010284,312.446442 303.062164,316.426300 302.987274,320.398193 
	C301.584412,317.154572 299.398987,314.002777 299.004333,310.640808 
	C298.628784,307.441528 300.123596,304.022675 301.230774,300.205566 
	C301.798248,298.809265 301.931000,297.907776 302.063721,297.006256 
z"/>
<path fill="#477E7A" opacity="1.000000" stroke="none" 
	d="
M302.904663,320.735840 
	C303.062164,316.426300 303.010284,312.446442 303.259613,308.485504 
	C303.408905,306.113617 304.029236,303.771423 304.779175,301.117981 
	C305.445862,308.961700 305.771210,317.103333 306.044312,325.623291 
	C305.992065,326.001617 306.016174,325.969574 306.016174,325.969574 
	C304.951447,324.337555 303.886749,322.705505 302.904663,320.735840 
z"/>
<path fill="#477E7A" opacity="1.000000" stroke="none" 
	d="
M305.772278,298.064880 
	C305.387482,297.763031 305.306458,297.338837 305.543640,296.359558 
	C306.239777,294.360474 306.617676,292.916473 306.995605,291.472473 
	C307.890930,290.703644 308.786285,289.934784 309.681610,289.165955 
	C310.047455,289.447296 310.413300,289.728668 310.779175,290.010010 
	C309.211456,292.654205 307.643738,295.298370 305.772278,298.064880 
z"/>
<path fill="#0B2928" opacity="1.000000" stroke="none" 
	d="
M306.698730,291.645203 
	C306.617676,292.916473 306.239777,294.360474 305.548157,296.030365 
	C304.755920,295.918793 304.277435,295.581360 303.518799,295.152405 
	C304.293060,293.979889 305.347443,292.898895 306.698730,291.645203 
z"/>
<path fill="#0B2928" opacity="1.000000" stroke="none" 
	d="
M301.751770,297.163635 
	C301.931000,297.907776 301.798248,298.809265 301.424927,299.867249 
	C301.269531,299.122833 301.354706,298.221893 301.751770,297.163635 
z"/>
<path fill="#477E7A" opacity="1.000000" stroke="none" 
	d="
M305.976807,326.014771 
	C305.961517,326.027924 306.305817,326.128937 306.305817,326.128937 
	C306.305817,326.128937 306.098785,326.140076 306.057495,326.054810 
	C306.016174,325.969574 305.992065,326.001617 305.976807,326.014771 
z"/>
<path fill="#73D3CD" opacity="1.000000" stroke="none" 
	d="
M341.705261,291.604187 
	C343.394989,289.118011 345.194763,286.980560 346.994537,284.843109 
	C347.339142,284.945099 347.683746,285.047058 348.028381,285.149048 
	C346.722198,288.616821 345.416046,292.084564 344.109863,295.552338 
	C343.652527,295.576538 343.195160,295.600739 342.737793,295.624939 
	C342.430298,294.400940 342.122772,293.176910 341.705261,291.604187 
z"/>
<path fill="#0B2928" opacity="1.000000" stroke="none" 
	d="
M401.571594,288.032715 
	C402.016968,292.155792 402.058197,296.305115 402.164368,300.901245 
	C402.021149,301.616791 401.994965,301.902466 402.222717,302.470154 
	C402.294678,302.735291 402.383789,303.123016 402.383789,303.123016 
	C401.715973,310.317871 400.954590,317.505951 400.431610,324.711334 
	C400.250977,327.199951 400.432831,329.545898 396.423096,329.067322 
	C395.961212,321.361969 395.942719,313.663269 395.860596,305.502380 
	C396.387695,300.531281 396.745331,295.971619 397.709595,291.544006 
	C398.003296,290.195282 399.967987,289.210449 401.571594,288.032715 
z"/>
<path fill="#68C6C1" opacity="1.000000" stroke="none" 
	d="
M402.547913,303.639282 
	C402.383789,303.123016 402.294678,302.735291 402.421448,302.579834 
	C403.232178,306.693146 403.916168,310.961884 404.600159,315.230621 
	C404.149200,315.284241 403.698242,315.337891 403.247284,315.391541 
	C403.068878,311.646210 402.890472,307.900909 402.547913,303.639282 
z"/>
<path fill="#BCBCBC" opacity="1.000000" stroke="none" 
	d="
M381.844238,251.020233 
	C382.616943,249.908813 383.709717,249.055695 385.046204,248.160522 
	C385.680908,248.665329 386.071899,249.212158 386.564911,250.253296 
	C385.166046,250.924591 383.665161,251.101562 381.844238,251.020233 
z"/>
<path fill="#5BA6A2" opacity="1.000000" stroke="none" 
	d="
M250.428589,313.145203 
	C249.802063,313.286682 248.996704,313.170959 248.030060,312.769806 
	C248.662415,312.618896 249.456085,312.753448 250.428589,313.145203 
z"/>
</svg>